<?xml version="1.0" standalone="no"?>
<!DOCTYPE svg PUBLIC "-//W3C//DTD SVG 20010904//EN"
 "http://www.w3.org/TR/2001/REC-SVG-20010904/DTD/svg10.dtd">
<svg version="1.0" xmlns="http://www.w3.org/2000/svg"
 width="566.000000pt" height="330.000000pt" viewBox="0 0 566.000000 330.000000"
 preserveAspectRatio="xMidYMid meet">

<g transform="translate(0.000000,330.000000) scale(0.100000,-0.100000)"
fill="#000000" stroke="none">
<path d="M2290 2827 c0 -96 -3 -100 -92 -146 -89 -46 -74 -64 82 -91 164 -29
225 -75 190 -141 -14 -26 -76 -56 -190 -93 -121 -40 -127 -55 -38 -95 98 -45
179 -62 333 -71 200 -12 291 -38 329 -92 40 -56 5 -172 -60 -203 -45 -21 -116
-13 -145 16 -30 30 -19 44 30 41 30 -2 43 2 48 13 12 34 -15 40 -190 45 -156
5 -175 7 -208 28 -44 27 -79 28 -110 4 -31 -26 -20 -46 41 -77 60 -31 67 -59
20 -93 -25 -19 -30 -29 -30 -67 0 -81 73 -134 247 -177 117 -29 409 -32 548
-5 112 21 224 74 262 123 37 49 42 120 14 194 -12 30 -21 63 -21 73 0 9 28 44
62 76 74 72 73 76 -48 131 -74 35 -83 42 -111 92 -17 30 -42 62 -56 71 -45 29
-149 47 -342 59 -207 12 -234 20 -200 58 18 20 26 21 349 18 l331 -3 81 -37
c92 -43 138 -48 154 -18 16 29 -17 56 -87 70 -106 21 -153 46 -153 83 0 11 14
42 31 69 28 43 32 60 37 138 l5 90 -186 0 c-116 0 -196 -4 -214 -11 l-28 -12
35 -9 c82 -23 70 -27 -87 -27 -98 -1 -164 3 -168 9 -3 6 3 10 14 10 29 0 26
19 -5 30 -14 6 -126 10 -250 10 l-224 0 0 -83z m67 -174 c6 -17 -31 -25 -84
-17 -43 6 -45 8 -27 21 22 16 106 14 111 -4z m171 -342 c55 -11 70 -24 51 -47
-11 -14 -28 -16 -109 -11 -99 5 -168 23 -153 38 23 23 140 34 211 20z m805
-132 c47 -13 48 -35 2 -55 -64 -26 -137 -9 -122 30 12 32 60 42 120 25z"/>
<path d="M3250 1318 c-47 -16 -103 -75 -118 -124 -15 -51 -16 -156 -1 -207 6
-21 26 -56 46 -78 59 -65 179 -87 291 -54 l52 16 0 115 0 115 -92 -3 -93 -3
-3 -47 -3 -48 35 0 c29 0 36 -4 36 -20 0 -16 -7 -20 -33 -20 -50 0 -74 23 -87
84 -25 124 39 211 105 140 20 -22 30 -25 77 -22 l53 3 3 58 3 58 -48 21 c-56
25 -171 33 -223 16z"/>
<path d="M1827 1313 c-4 -3 -7 -30 -7 -60 0 -46 3 -53 20 -53 19 0 20 -7 20
-115 0 -108 -1 -115 -20 -115 -18 0 -20 -7 -20 -60 l0 -60 120 0 120 0 0 60
c0 53 -2 60 -20 60 -15 0 -20 7 -20 29 0 28 2 30 48 33 l47 3 3 41 3 41 -50 7
c-50 7 -51 7 -51 41 0 35 0 35 45 35 41 0 45 -2 45 -25 0 -24 3 -25 59 -25 56
0 59 1 64 28 3 16 3 54 0 85 l-6 57 -197 0 c-108 0 -200 -3 -203 -7z"/>
<path d="M2270 1260 c0 -53 2 -60 20 -60 19 0 20 -7 20 -115 0 -108 -1 -115
-20 -115 -18 0 -20 -7 -20 -60 l0 -60 115 0 115 0 0 60 c0 45 -3 60 -14 60
-11 0 -15 20 -18 93 -4 110 0 137 18 137 10 0 14 16 14 60 l0 60 -115 0 -115
0 0 -60z"/>
<path d="M2540 1260 c0 -53 2 -60 20 -60 19 0 20 -7 20 -115 0 -108 -1 -115
-20 -115 -18 0 -20 -7 -20 -60 l0 -60 115 0 115 0 0 60 c0 47 -3 60 -15 60
-12 0 -15 13 -15 60 0 33 2 60 4 60 2 0 35 -54 72 -120 l69 -120 98 0 97 0 0
60 c0 53 -2 60 -20 60 -19 0 -20 7 -20 115 0 108 1 115 20 115 18 0 20 7 20
60 l0 61 -117 -3 -118 -3 -3 -57 c-3 -53 -1 -58 18 -58 18 0 20 -6 20 -67 0
-79 5 -83 -89 80 l-63 107 -94 0 -94 0 0 -60z"/>
<path d="M3560 1261 c0 -50 3 -59 20 -64 18 -5 20 -14 20 -112 0 -98 -2 -107
-20 -112 -17 -5 -20 -14 -20 -64 l0 -59 205 0 206 0 -3 93 -3 92 -57 3 -58 3
0 -36 0 -35 -50 0 -50 0 0 40 0 40 50 0 50 0 0 40 0 40 -50 0 -50 0 0 35 0 35
50 0 c47 0 50 -2 50 -25 0 -24 3 -25 60 -25 l60 0 0 85 0 85 -205 0 -205 0 0
-59z"/>
<path d="M4007 1313 c-4 -3 -7 -30 -7 -60 0 -46 3 -53 20 -53 19 0 20 -7 20
-115 0 -108 -1 -115 -20 -115 -18 0 -20 -7 -20 -60 l0 -60 120 0 120 0 0 60
c0 53 -2 60 -20 60 -17 0 -20 7 -20 40 0 32 4 40 19 40 26 0 37 -18 45 -72 12
-83 67 -128 156 -128 l50 0 0 60 c0 46 -3 60 -15 60 -17 0 -35 30 -35 59 0 24
-44 61 -74 61 -16 1 -13 5 16 21 21 10 45 31 55 45 15 23 15 30 2 67 -18 51
-49 74 -118 87 -60 11 -284 14 -294 3z m251 -125 c28 -28 8 -58 -39 -58 -15 0
-19 7 -19 35 0 30 3 35 23 35 13 0 28 -5 35 -12z"/>
<path d="M1272 1123 l3 -118 95 -5 c88 -5 95 -7 98 -27 3 -18 -3 -23 -34 -29
-33 -6 -101 4 -145 21 -12 4 -19 -4 -28 -35 -6 -22 -9 -45 -6 -50 20 -32 190
-51 267 -30 85 24 117 127 61 190 -24 26 -40 33 -101 42 -98 16 -88 32 21 36
l87 3 0 59 0 60 -160 0 -161 0 3 -117z"/>
<path d="M1502 738 c-22 -22 -13 -48 23 -65 45 -21 45 -37 1 -30 -39 6 -51 0
-35 -20 16 -18 64 -16 84 3 24 24 14 47 -28 67 -45 21 -48 32 -7 24 35 -7 49
8 21 22 -26 14 -44 14 -59 -1z"/>
<path d="M1776 734 c-42 -42 -23 -117 31 -122 23 -2 35 3 47 20 46 66 -24 157
-78 102z m59 -54 c0 -29 -4 -36 -22 -38 -17 -3 -24 3 -29 22 -9 37 2 58 28 54
19 -2 23 -9 23 -38z"/>
<path d="M2040 697 c0 -40 5 -58 18 -70 45 -41 82 -9 82 70 0 73 -24 68 -28
-6 -3 -43 -6 -52 -20 -49 -13 2 -18 16 -20 56 -2 37 -7 52 -18 52 -10 0 -14
-13 -14 -53z"/>
<path d="M2320 681 c0 -41 4 -71 10 -71 6 0 10 19 10 43 l1 42 25 -42 c39 -65
54 -57 54 27 0 56 -3 70 -15 70 -11 0 -15 -11 -15 -42 l0 -43 -23 39 c-36 64
-47 58 -47 -23z"/>
<path d="M2600 681 c0 -71 0 -71 28 -71 45 0 72 25 72 69 0 45 -14 60 -64 68
l-36 6 0 -72z m72 14 c13 -29 -3 -55 -33 -55 -15 0 -19 8 -19 40 0 33 3 40 20
40 12 0 25 -10 32 -25z"/>
<path d="M3050 680 c0 -40 4 -70 10 -70 6 0 10 11 10 25 0 20 5 25 24 25 26 0
56 23 56 44 0 22 -35 46 -68 46 l-32 0 0 -70z m70 25 c0 -9 -9 -15 -25 -15
-16 0 -25 6 -25 15 0 9 9 15 25 15 16 0 25 -6 25 -15z"/>
<path d="M3312 688 c3 -59 5 -63 32 -73 41 -14 68 21 64 83 -4 66 -26 66 -30
0 -3 -45 -6 -53 -23 -53 -17 0 -20 8 -23 53 -2 28 -8 52 -13 52 -6 0 -9 -26
-7 -62z"/>
<path d="M3580 680 c0 -56 3 -70 15 -70 11 0 15 11 15 37 l0 38 25 -38 c14
-20 30 -37 35 -37 6 0 10 32 10 70 0 40 -4 70 -10 70 -5 0 -10 -16 -10 -35 0
-19 -3 -35 -8 -35 -4 0 -16 16 -26 35 -31 57 -46 46 -46 -35z"/>
<path d="M3877 732 c-23 -25 -22 -85 1 -105 23 -21 56 -22 72 -2 13 16 9 18
-32 15 -22 -1 -29 4 -34 24 -9 37 12 59 48 51 29 -7 36 3 16 23 -18 18 -53 15
-71 -6z"/>
<path d="M4130 680 c0 -56 3 -70 15 -70 10 0 15 10 15 31 0 26 3 30 23 27 16
-2 23 -11 25 -30 7 -56 22 -26 22 42 0 68 -15 98 -22 43 -2 -20 -9 -29 -25
-31 -20 -3 -23 1 -23 27 0 21 -5 31 -15 31 -12 0 -15 -14 -15 -70z"/>
</g>
</svg>
